<svg width="15" height="18" viewBox="0 0 15 18" fill="none" xmlns="http://www.w3.org/2000/svg">
<g id="Iconly/Bold/Arrow---Down-2">
<g id="Arrow---Down-2">
<path id="Vector" d="M2.14904 7.25457L2.15515 7.2483L2.16104 7.24181C2.91523 6.41133 4.30856 5.28598 5.8022 4.25065C7.29557 3.2155 8.83475 2.30805 9.86523 1.89284L9.86527 1.89293L9.87445 1.88902C10.0221 1.82609 10.2958 1.72271 10.5849 1.6334C10.88 1.54221 11.1405 1.48182 11.2942 1.47317C11.6314 1.4749 11.9516 1.55185 12.262 1.70919C12.6436 1.93172 12.9497 2.27886 13.118 2.68407C13.1709 2.82561 13.2496 3.14128 13.3205 3.45995C13.3548 3.61387 13.3849 3.75758 13.4064 3.86358C13.4171 3.91664 13.4255 3.95949 13.4312 3.98892L13.4317 3.99176L13.4317 3.99315L13.4397 4.03732C13.6438 5.16475 13.7605 7.03338 13.7605 9.12816C13.7605 11.0972 13.6469 12.8808 13.4807 14.0396C13.48 14.0424 13.4794 14.0449 13.4789 14.047C13.4738 14.0673 13.4689 14.0904 13.4645 14.1111C13.4556 14.1538 13.4442 14.2125 13.4313 14.278L13.4312 14.279L13.4309 14.2806C13.4045 14.4152 13.3699 14.5926 13.3289 14.7827C13.2411 15.1898 13.1416 15.5683 13.0607 15.7276C12.7166 16.4008 12.0529 16.8049 11.3595 16.8049L11.2927 16.8049C11.0886 16.7955 10.7122 16.6897 10.3341 16.5551C10.205 16.5091 10.085 16.4632 9.98479 16.4231L9.98479 16.418L9.68096 16.2884C8.70181 15.8707 7.21122 14.9944 5.75287 13.9876C4.29261 12.9795 2.91501 11.875 2.14278 11.0163L2.13514 11.0078L2.12716 10.9997L2.12714 10.9997L2.12711 10.9997L2.12704 10.9996L2.12633 10.9989L2.12302 10.9955L2.10935 10.9815C2.09729 10.9691 2.07957 10.9508 2.0576 10.9278C2.01354 10.8818 1.95286 10.8176 1.88645 10.745C1.7477 10.5932 1.60482 10.4272 1.52701 10.3138L1.5215 10.3058L1.51568 10.298C1.27602 9.97624 1.15066 9.56777 1.15066 9.14857C1.15066 8.68458 1.2871 8.26316 1.53694 7.92162C1.57371 7.88209 1.62676 7.82281 1.68511 7.75762C1.71298 7.72647 1.74206 7.69398 1.77115 7.66164C1.88612 7.53385 2.02096 7.38605 2.14904 7.25457Z" stroke="#282828"/>
</g>
</g>
</svg>
