<svg xmlns="http://www.w3.org/2000/svg" width="15" height="17" viewBox="0 0 15 17" fill="none">
  <path d="M12.5236 10.2495L12.5175 10.2558L12.5116 10.2623C11.7574 11.0928 10.364 12.2181 8.87041 13.2534C7.37704 14.2886 5.83785 15.196 4.80737 15.6112L4.80734 15.6112L4.79815 15.6151C4.65054 15.678 4.37676 15.7814 4.08774 15.8707C3.79265 15.9619 3.53215 16.0223 3.37838 16.0309C3.04122 16.0292 2.72096 15.9522 2.41057 15.7949C2.02898 15.5724 1.72295 15.2252 1.55463 14.82C1.50174 14.6785 1.42305 14.3628 1.35211 14.0441C1.31784 13.8902 1.28772 13.7465 1.26624 13.6405C1.25549 13.5875 1.24706 13.5446 1.24145 13.5152L1.24092 13.5123L1.24092 13.5109L1.23292 13.4668C1.02882 12.3393 0.912109 10.4707 0.912109 8.37593C0.91211 6.40689 1.02574 4.62333 1.19187 3.46449C1.1926 3.46167 1.19322 3.45919 1.19373 3.45712C1.19878 3.43674 1.20375 3.41371 1.20807 3.39298C1.21698 3.35026 1.22845 3.29161 1.24126 3.22606L1.24145 3.22508L1.24175 3.22353C1.26808 3.08887 1.30276 2.91147 1.34372 2.72143C1.43148 2.31425 1.53098 1.93582 1.61191 1.77645C1.95599 1.10332 2.61975 0.699144 3.31307 0.699144L3.37994 0.699144C3.58402 0.708605 3.96044 0.814436 4.33847 0.949017C4.4676 0.994987 4.58764 1.04088 4.68782 1.08097L4.68782 1.0861L4.99164 1.2157C5.97079 1.63335 7.46139 2.50965 8.91974 3.51648C10.38 4.52463 11.7576 5.62909 12.5298 6.48779L12.5375 6.49629L12.5454 6.50438L12.5455 6.5044L12.5455 6.50443L12.5456 6.5045L12.5463 6.50523L12.5496 6.5086L12.5633 6.5226C12.5753 6.53501 12.593 6.5533 12.615 6.57626C12.6591 6.62228 12.7197 6.68648 12.7862 6.75912C12.9249 6.91087 13.0678 7.07687 13.1456 7.19029L13.1511 7.19832L13.1569 7.20614C13.3966 7.52785 13.5219 7.93632 13.5219 8.35552C13.5219 8.81951 13.3855 9.24093 13.1357 9.58247C13.0989 9.622 13.0458 9.68128 12.9875 9.74647C12.9596 9.77761 12.9305 9.81011 12.9015 9.84245C12.7865 9.97024 12.6517 10.118 12.5236 10.2495Z" stroke="#282828"/>
</svg>