<svg width="548" height="464" viewBox="0 0 548 464" fill="none" xmlns="http://www.w3.org/2000/svg">
<mask id="mask0_3_6" style="mask-type:alpha" maskUnits="userSpaceOnUse" x="0" y="0" width="548" height="464">
<rect x="0.831055" y="0.179688" width="546.28" height="463.722" rx="16" fill="#FFC700"/>
</mask>
<g mask="url(#mask0_3_6)">
<path d="M273.966 232.036L227.861 -210.74H320.08L273.966 232.036Z" fill="#E2F0CB"/>
<path d="M273.966 232.036L79.1997 -168.27L165.858 -199.807L273.966 232.036Z" fill="#E2F0CB"/>
<path d="M273.966 232.036L-45.967 -77.5103L24.6845 -136.792L273.966 232.036Z" fill="#E2F0CB"/>
<path d="M273.966 232.036L-132.546 50.5862L-86.4315 -29.2803L273.966 232.036Z" fill="#E2F0CB"/>
<path d="M273.966 232.036L-170.091 200.568L-154.074 109.739L273.966 232.036Z" fill="#E2F0CB"/>
<path d="M273.966 232.036L-154.074 354.343L-170.091 263.523L273.966 232.036Z" fill="#E2F0CB"/>
<path d="M273.966 232.036L-86.4315 493.362L-132.546 413.495L273.966 232.036Z" fill="#E2F0CB"/>
<path d="M273.966 232.036L24.6845 600.873L-45.967 541.592L273.966 232.036Z" fill="#E2F0CB"/>
<path d="M273.966 232.036L165.858 663.889L79.1997 632.351L273.966 232.036Z" fill="#E2F0CB"/>
<path d="M273.966 232.036L320.08 674.822H227.861L273.966 232.036Z" fill="#E2F0CB"/>
<path d="M273.966 232.036L468.741 632.351L382.083 663.889L273.966 232.036Z" fill="#E2F0CB"/>
<path d="M273.966 232.036L593.908 541.592L523.267 600.873L273.966 232.036Z" fill="#E2F0CB"/>
<path d="M273.966 232.036L680.487 413.495L634.373 493.362L273.966 232.036Z" fill="#E2F0CB"/>
<path d="M273.966 232.036L718.033 263.523L702.016 354.343L273.966 232.036Z" fill="#E2F0CB"/>
<path d="M273.966 232.036L702.016 109.739L718.033 200.568L273.966 232.036Z" fill="#E2F0CB"/>
<path d="M273.966 232.036L634.373 -29.2803L680.487 50.5862L273.966 232.036Z" fill="#E2F0CB"/>
<path d="M273.966 232.036L523.267 -136.792L593.908 -77.5103L273.966 232.036Z" fill="#E2F0CB"/>
<path d="M273.966 232.036L382.083 -199.807L468.741 -168.27L273.966 232.036Z" fill="#E2F0CB"/>
<path d="M273.966 383.636C357.687 383.636 425.556 315.767 425.556 232.046C425.556 148.324 357.687 80.4551 273.966 80.4551C190.245 80.4551 122.375 148.324 122.375 232.046C122.375 315.767 190.245 383.636 273.966 383.636Z" fill="url(#paint0_radial_3_6)"/>
</g>
<defs>
<radialGradient id="paint0_radial_3_6" cx="0" cy="0" r="1" gradientUnits="userSpaceOnUse" gradientTransform="translate(273.966 232.046) rotate(90) scale(151.59 151.59)">
<stop stop-color="#B5EAD6"/>
<stop offset="1" stop-color="white" stop-opacity="0"/>
</radialGradient>
</defs>
</svg>
